<?xml version="1.0" encoding="utf-8"?>
<!-- Generator: Adobe Illustrator 27.7.0, SVG Export Plug-In . SVG Version: 6.00 Build 0)  -->
<svg version="1.1" id="Layer_1" xmlns="http://www.w3.org/2000/svg" xmlns:xlink="http://www.w3.org/1999/xlink" x="0px" y="0px"
	 viewBox="0 0 151.19 36" style="enable-background:new 0 0 151.19 36;" xml:space="preserve">
<style type="text/css">
	.st0{fill:#043673;}
	.st1{fill:#EE3124;}
</style>
<g>
	<path class="st0" d="M13.04,24.28l-6.13-3.7c-0.12-0.07-0.19-0.2-0.19-0.34l-0.01-1.83c0-0.31,0.34-0.51,0.61-0.35l5.68,3.43
		c0.35,0.21,0.78,0.2,1.12-0.02l7.67-4.99c0.11-0.07,0.18-0.2,0.18-0.34v-4c0-0.21-0.11-0.41-0.3-0.51L13.98,7.2
		c-0.23-0.13-0.51-0.13-0.74,0l-9.67,5.64C3.3,13,2.97,12.81,2.97,12.5v-1.99c0-0.14,0.08-0.28,0.2-0.35l9.93-5.59
		c0.32-0.18,0.72-0.18,1.04,0.01l9.65,5.55c0.31,0.18,0.51,0.5,0.53,0.85l0.01,0.12l0,0.02v5.94c0,0.36-0.18,0.69-0.48,0.88
		l-9.68,6.3C13.82,24.48,13.39,24.49,13.04,24.28"/>
	<path class="st1" d="M13,28.71l-9.55-5.55c-0.38-0.22-0.61-0.62-0.61-1.06v-6.87c0-0.45,0.24-0.86,0.64-1.07l9.51-5.22
		c0.38-0.21,0.85-0.2,1.22,0.03l5.86,3.54c0.12,0.07,0.19,0.2,0.19,0.34l0.03,1.84c0.01,0.31-0.34,0.51-0.61,0.35l-5.74-3.47
		c-0.24-0.15-0.55-0.15-0.8-0.02l-7.52,4.13c-0.26,0.14-0.43,0.42-0.43,0.72v4.57c0,0.3,0.16,0.58,0.42,0.73l7.53,4.38
		c0.29,0.17,0.64,0.17,0.92,0l7.89-4.57l1.76-1.02c0.27-0.15,0.6,0.04,0.6,0.35v1.8c0,0.14-0.08,0.27-0.2,0.35l-9.89,5.74
		C13.85,28.93,13.38,28.93,13,28.71"/>
	<path class="st0" d="M42.2,24.42c-4.3,0-7.31-3.07-7.31-7.47c0-4.4,3.01-7.47,7.31-7.47c4.32,0,7.34,3.07,7.34,7.47
		C49.54,21.35,46.52,24.42,42.2,24.42 M42.2,7.32c-5.61,0-9.68,4.05-9.68,9.62c0,5.58,4.07,9.63,9.68,9.63
		c5.72,0,9.71-3.96,9.71-9.63C51.91,11.28,47.92,7.32,42.2,7.32"/>
	<path class="st0" d="M66.25,19.69c0,2.9-1.97,4.93-4.78,4.93c-2.85,0-4.84-2.02-4.84-4.93c0-2.91,1.99-4.95,4.84-4.95
		C64.28,14.74,66.25,16.78,66.25,19.69 M61.71,12.78c-2.28,0-4.11,0.85-5.21,2.39l-0.04-1.74c0-0.21-0.17-0.37-0.38-0.37h-1.15
		c-0.21,0-0.38,0.17-0.38,0.38v17.75c0,0.21,0.17,0.38,0.38,0.38h1.4c0.21,0,0.38-0.17,0.38-0.38v-6.7c1.1,1.34,2.87,2.08,5.01,2.08
		c3.89,0,6.71-2.89,6.71-6.88C68.43,15.69,65.61,12.78,61.71,12.78"/>
	<path class="st0" d="M86.8,24.62c-2.82,0-4.78-2.02-4.78-4.93c0-2.91,1.97-4.95,4.78-4.95c2.83,0,4.81,2.04,4.81,4.95
		C91.61,22.59,89.63,24.62,86.8,24.62 M93.34,13.06h-1.2c-0.18,0-0.34,0.15-0.34,0.33l-0.04,1.76c-1.13-1.53-2.97-2.37-5.24-2.37
		c-3.88,0-6.69,2.91-6.69,6.91c0,3.99,2.81,6.88,6.69,6.88c2.26,0,4.14-0.86,5.24-2.37l0.04,1.75c0,0.18,0.16,0.33,0.34,0.33h1.2
		c0.19,0,0.34-0.15,0.34-0.34V13.4C93.68,13.21,93.53,13.06,93.34,13.06"/>
	<path class="st0" d="M108.82,13.59l-5.43,12.48c-0.06,0.14-0.2,0.23-0.35,0.23h-1.61c-0.15,0-0.29-0.09-0.35-0.23l-5.42-12.48
		c-0.05-0.12-0.04-0.25,0.03-0.36c0.07-0.11,0.19-0.17,0.32-0.17h1.49c0.15,0,0.29,0.09,0.35,0.23l4.43,10.6l4.43-10.6
		c0.06-0.14,0.2-0.24,0.35-0.24h1.4c0.13,0,0.25,0.07,0.32,0.17C108.86,13.34,108.87,13.47,108.82,13.59"/>
	<path class="st0" d="M112.97,13.43v12.5c0,0.2-0.17,0.37-0.37,0.37h-1.41c-0.2,0-0.37-0.17-0.37-0.37v-12.5
		c0-0.2,0.17-0.37,0.37-0.37h1.41C112.8,13.06,112.97,13.22,112.97,13.43"/>
	<path class="st0" d="M113,10.04c-0.26,0.31-0.66,0.49-1.1,0.49h-0.04c-0.73-0.02-1.36-0.65-1.38-1.38
		c-0.01-0.45,0.17-0.87,0.5-1.14c0.34-0.28,0.79-0.39,1.28-0.29c0.52,0.1,0.93,0.52,1.03,1.03C113.39,9.24,113.29,9.7,113,10.04"/>
	<path class="st0" d="M125.94,22.46c0,2.54-1.98,4.11-5.16,4.11c-2.04,0-3.64-0.42-4.76-1.23c-0.2-0.15-0.32-0.4-0.32-0.66v-1.89
		h0.3l0.04,0.05c1,1.16,2.62,1.78,4.68,1.78c1.86,0,3.07-0.85,3.07-2.15c0-1.06-0.51-1.64-3.27-1.85c-3.48-0.25-4.76-1.24-4.76-3.67
		c0-2.49,2.02-4.16,5.02-4.16c1.6,0,3.01,0.3,3.98,0.84c0.27,0.15,0.43,0.43,0.43,0.73v1.77h-0.3l-0.04-0.05
		c-0.83-0.89-2.19-1.34-4.02-1.34c-1.71,0-2.96,0.92-2.96,2.18c0,0.92,0.49,1.45,3.07,1.6C124.54,18.74,125.94,19.85,125.94,22.46"
		/>
	<path class="st0" d="M134.46,14.74c2.58,0,4.35,1.43,4.66,3.75h-9.36C130.23,16.21,132.06,14.74,134.46,14.74 M141.15,19.16
		c0-3.83-2.59-6.34-6.61-6.38c-3.7-0.05-6.76,2.76-6.97,6.38c-0.12,2.08,0.47,3.88,1.71,5.2c1.36,1.45,3.38,2.21,5.85,2.21
		c1.81,0,3.47-0.46,4.65-1.28c0.32-0.22,0.51-0.59,0.51-0.99v-1.55H140l-0.04,0.04c-1.23,1.21-2.83,1.82-4.77,1.82
		c-3.06,0-5.13-1.61-5.44-4.22h11.4V19.16z"/>
	<path class="st0" d="M78.24,23.87v1.66c0,0.33-0.2,0.62-0.5,0.74c-0.52,0.2-1.16,0.31-1.89,0.31c-2.65,0-4.16-1.62-4.16-4.45v-7.17
		h-2.16c-0.18,0-0.33-0.15-0.33-0.33v-1.24c0-0.18,0.15-0.33,0.33-0.33h2.21V9.93c0-0.18,0.15-0.33,0.33-0.33h1.43
		c0.18,0,0.33,0.15,0.33,0.33v3.13h4.02c0.18,0,0.33,0.15,0.33,0.33v1.24c0,0.18-0.15,0.33-0.33,0.33h-4.02v7.11
		c0,1.59,0.83,2.54,2.23,2.54c0.8,0,1.6-0.23,2.01-0.7l0.04-0.05H78.24z"/>
</g>
<g>
	<path class="st0" d="M142.01,24.89c0-0.23,0.04-0.46,0.13-0.66c0.09-0.21,0.21-0.39,0.37-0.54c0.15-0.15,0.34-0.27,0.54-0.36
		c0.21-0.09,0.43-0.14,0.66-0.14c0.23,0,0.46,0.05,0.66,0.14c0.21,0.09,0.39,0.21,0.54,0.36c0.15,0.15,0.28,0.33,0.37,0.54
		c0.09,0.21,0.13,0.43,0.13,0.66s-0.05,0.45-0.13,0.66c-0.09,0.2-0.21,0.38-0.37,0.54c-0.15,0.15-0.34,0.27-0.54,0.36
		c-0.21,0.09-0.43,0.13-0.66,0.13c-0.23,0-0.46-0.04-0.66-0.13c-0.21-0.09-0.39-0.21-0.54-0.36c-0.15-0.15-0.28-0.33-0.37-0.54
		C142.06,25.34,142.01,25.12,142.01,24.89z M142.28,24.89c0,0.19,0.04,0.38,0.11,0.55c0.07,0.17,0.18,0.33,0.31,0.46
		c0.13,0.13,0.28,0.24,0.46,0.31c0.17,0.08,0.36,0.11,0.56,0.11c0.2,0,0.39-0.04,0.56-0.11s0.33-0.18,0.46-0.31
		c0.13-0.13,0.23-0.29,0.31-0.46c0.08-0.18,0.11-0.36,0.11-0.55c0-0.2-0.04-0.39-0.11-0.56c-0.07-0.17-0.18-0.33-0.31-0.46
		c-0.13-0.13-0.28-0.23-0.46-0.31s-0.36-0.11-0.56-0.11c-0.2,0-0.39,0.04-0.56,0.11c-0.18,0.08-0.33,0.18-0.46,0.31
		s-0.23,0.28-0.31,0.46C142.32,24.5,142.28,24.69,142.28,24.89z M143.05,23.92h0.67c0.09,0,0.18,0.01,0.26,0.03
		c0.08,0.02,0.16,0.05,0.23,0.1c0.07,0.04,0.12,0.1,0.16,0.17c0.04,0.07,0.06,0.16,0.06,0.26c0,0.14-0.04,0.25-0.12,0.34
		c-0.08,0.09-0.19,0.15-0.32,0.18l0.52,0.84h-0.42l-0.45-0.8h-0.25v0.8h-0.34V23.92z M143.67,24.76c0.1,0,0.19-0.02,0.28-0.06
		c0.09-0.04,0.13-0.11,0.13-0.23c0-0.1-0.04-0.17-0.12-0.21c-0.08-0.03-0.17-0.05-0.26-0.05h-0.31v0.55H143.67z"/>
</g>
</svg>
