<svg id="Layer_1" data-name="Layer 1" xmlns="http://www.w3.org/2000/svg" viewBox="0 0 719.57 252.62"><defs><style>.cls-1{fill:#2b2b2a;}.cls-2{fill:#bb4f09;}</style></defs><path class="cls-1" d="M456.14,340H417.8V312.5H523.06V340h-38.5V445.62H456.14Z" transform="translate(-251.75 -269.94)"/><path class="cls-1" d="M643.43,312.5V445.62H615.17V393.39H565.93v52.23H537.67V312.5h28.26v53.17h49.24V312.5Z" transform="translate(-251.75 -269.94)"/><path class="cls-1" d="M705.56,393.19H686.39v52.43H658.13V312.5h46.11c31.06,0,54.36,8.08,54.36,41.13,0,19.65-9.75,30.85-23.46,36.72l29.58,55.27H731.5Zm-19.17-54.25v27h18.67c13.39,0,23.63-2.11,23.63-13.52,0-12.3-10.24-13.52-23.63-13.52Z" transform="translate(-251.75 -269.94)"/><path class="cls-1" d="M772.85,312.5h91.88V340H801.11v25.63h60.15v27.72H801.11v24.5h63.62v27.73H772.85Z" transform="translate(-251.75 -269.94)"/><path class="cls-1" d="M879.44,312.5h91.88V340H907.7v25.63h60.15v27.72H907.7v24.5h63.62v27.73H879.44Z" transform="translate(-251.75 -269.94)"/><rect class="cls-2" y="105.28" width="149.46" height="27.77"/><rect class="cls-2" y="147.76" width="149.46" height="27.77"/><path class="cls-2" d="M259.61,360.51h-7.86V332.74h7.84c21.06,0,39.33-6.68,51.48-18.82,11-11,16.88-26.24,16.88-44h27.77c0,25.28-8.65,47.28-25,63.62C313.3,350.94,288.05,360.51,259.61,360.51Z" transform="translate(-251.75 -269.94)"/><path class="cls-1" d="M252.09,485.65h15c7.55,0,13.16,1.85,13.16,9.41a8.61,8.61,0,0,1-4.09,7.55,8.06,8.06,0,0,1,5.46,8.15c0,8.1-5.55,11.15-13.92,11.15H252.09Zm8.13,14.51h7.17c2.8,0,4.42-1.45,4.42-3.7s-1.62-3.61-4.42-3.61h-7.17Zm0,14.55h7.6c3.47,0,5.22-1.55,5.22-4.1s-1.75-4.1-5.22-4.1h-7.6Z" transform="translate(-251.75 -269.94)"/><path class="cls-1" d="M294.85,485.65l7.7,13.91,7.79-13.91h9.41l-13.3,22.26v14h-8.13v-14.1l-13-22.16Z" transform="translate(-251.75 -269.94)"/><path class="cls-1" d="M350.82,485.65h15c7.56,0,13.16,1.85,13.16,9.41a8.6,8.6,0,0,1-4.08,7.55,8.06,8.06,0,0,1,5.46,8.15c0,8.1-5.56,11.15-13.92,11.15H350.82Zm8.12,14.51h7.18c2.8,0,4.42-1.45,4.42-3.7s-1.62-3.61-4.42-3.61h-7.18Zm0,14.55h7.61c3.46,0,5.22-1.55,5.22-4.1s-1.76-4.1-5.22-4.1h-7.61Z" transform="translate(-251.75 -269.94)"/><path class="cls-1" d="M387.65,485.65h26.42v7.5H395.78v6.36h17.29v7.55H395.78v7.3h18.29v7.55H387.65Z" transform="translate(-251.75 -269.94)"/><path class="cls-1" d="M435.47,508.26H430v13.65h-8.12V485.65h13.25c8.93,0,15.63,2.2,15.63,11.21a10,10,0,0,1-6.74,10l8.5,15h-9.55ZM430,492.85v8.21h5.37c3.85,0,6.79-.7,6.79-4.1s-2.94-4.11-6.79-4.11Z" transform="translate(-251.75 -269.94)"/><path class="cls-1" d="M466.63,500l12.49-14.36h9.93l-12.73,14.46,13.4,21.8h-9.79l-9.31-15.3-4,4.6v10.7h-8.12V485.65h8.12Z" transform="translate(-251.75 -269.94)"/><path class="cls-1" d="M506.35,491.9c-3.14,0-5.46,1.25-5.46,3.51,0,1.8,1.61,3.1,4,3.65l4.7,1c5.56,1.2,12.59,3,12.59,10.6s-7.27,11.9-14.44,11.9c-8.84,0-14.64-4.65-15.87-12.45h8.08c.9,3.8,3.75,5.55,8,5.55,2.75,0,5.89-.95,5.89-3.95,0-2.35-2.66-3.5-6.42-4.35l-4.18-.9c-5.6-1.25-10.69-4-10.69-10.55,0-7.41,7.56-10.86,14.3-10.86s13.16,3.1,14.35,11.11h-8C512.33,493.45,509.82,491.9,506.35,491.9Z" transform="translate(-251.75 -269.94)"/><path class="cls-1" d="M560.65,485.65v36.26h-8.12V507.06H538.37v14.85h-8.12V485.65h8.12v13.86h14.16V485.65Z" transform="translate(-251.75 -269.94)"/><path class="cls-1" d="M578.35,521.91h-8.12V485.65h8.12Z" transform="translate(-251.75 -269.94)"/><path class="cls-1" d="M600.94,508.26h-5.51v13.65h-8.12V485.65h13.25c8.93,0,15.63,2.2,15.63,11.21a10,10,0,0,1-6.75,10l8.51,15H608.4Zm-5.51-15.41v8.21h5.37c3.85,0,6.79-.7,6.79-4.1s-2.94-4.11-6.79-4.11Z" transform="translate(-251.75 -269.94)"/><path class="cls-1" d="M624.86,485.65h26.42v7.5H633v6.36h17.29v7.55H633v7.3h18.29v7.55H624.86Z" transform="translate(-251.75 -269.94)"/><path class="cls-1" d="M712.41,485.65v36.26h-8.13V507.06H690.13v14.85H682V485.65h8.13v13.86h14.15V485.65Z" transform="translate(-251.75 -269.94)"/><path class="cls-1" d="M730.89,485.65h8.93l13,36.26H744l-2.09-6.45h-13.3l-2,6.45h-8.65Zm0,22.86h8.89l-4.42-13.8Z" transform="translate(-251.75 -269.94)"/><path class="cls-1" d="M763.06,493.15H752v-7.5H782.3v7.5H771.23v28.76h-8.17Z" transform="translate(-251.75 -269.94)"/><path class="cls-1" d="M820.74,485.65v36.26h-8.13V507.06H798.46v14.85h-8.13V485.65h8.13v13.86h14.15V485.65Z" transform="translate(-251.75 -269.94)"/><path class="cls-1" d="M840.12,485.65h8.93l13,36.26h-8.83l-2.1-6.45h-13.3l-2,6.45h-8.65Zm0,22.86H849l-4.42-13.8Z" transform="translate(-251.75 -269.94)"/><path class="cls-1" d="M893.14,510.81l4.32-25.16h8.13l-7.79,36.26h-8.74l-5.23-25.55-5.18,25.55H870l-7.89-36.26h8.22l4.7,25.06,4.66-25.06h8.41Z" transform="translate(-251.75 -269.94)"/><path class="cls-1" d="M918.56,485.65h8.93l13,36.26h-8.84l-2.09-6.45h-13.3l-2,6.45h-8.64Zm0,22.86h8.88L923,494.71Z" transform="translate(-251.75 -269.94)"/><path class="cls-1" d="M946.43,485.65l7.69,13.91,7.79-13.91h9.41L958,507.91v14h-8.13v-14.1l-13-22.16Z" transform="translate(-251.75 -269.94)"/></svg>