<svg width="85" height="48" viewBox="0 0 85 48" fill="none" xmlns="http://www.w3.org/2000/svg">
	<g clip-path="url(#clip0_1247_1983)">
		<path d="M0.43103 30.3454L0.43103 33.8843H26.2672V30.3454H0.43103Z" fill="#2020EE"/>
		<path fill-rule="evenodd" clip-rule="evenodd" d="M26.2651 8.86288V5.43285H22.2715V0H18.4725V16.9901C18.4725 20.2966 19.6526 22.2972 23.5809 22.359C24.6645 22.3759 25.3148 22.3759 26.2651 22.3759V18.9512C26.0199 18.9512 25.7952 18.9519 25.5578 18.9526L25.5565 18.9526L25.5551 18.9526C25.2888 18.9534 25.0064 18.9543 24.661 18.9543C23.024 18.9543 22.271 18.136 22.271 16.3683V8.86288H26.2646H26.2651ZM14.7646 20.382V20.3817V20.3803C14.7642 19.4269 14.7638 18.2866 14.7638 16.9919V12.1138C14.7638 7.36721 12.6036 5.30484 7.75835 5.30484C3.53537 5.30484 0.785392 7.46589 0.52315 10.9684H4.55012C4.68124 9.10245 5.82665 8.08771 7.75835 8.08771C9.85406 8.08771 10.803 9.13534 10.803 11.5902V12.016L7.33299 12.4414C4.74657 12.8018 3.1749 13.2272 1.99704 13.9144C0.687162 14.7331 0 16.0421 0 17.6137C0 20.5273 2.22594 22.459 5.56486 22.459C8.21661 22.459 10.279 21.2473 11.0648 19.2503C11.0904 20.0509 11.0878 20.8774 11.0856 21.5896V21.5898C11.085 21.7806 11.0844 21.9632 11.0844 22.135H14.7651V22.1345C14.7651 21.6549 14.7649 21.0667 14.7646 20.382ZM10.807 15.3376C10.5675 16.6661 9.9354 18.0662 8.83977 18.9005C8.0726 19.485 7.09919 19.7775 6.13912 19.6223C4.98126 19.4357 4.05941 18.6467 4.05941 17.4168C4.05941 16.0092 5.04126 15.2233 7.20187 14.8638C7.56305 14.8035 7.92578 14.7509 8.28853 14.6982C8.47441 14.6712 8.6603 14.6442 8.84599 14.6162L9.46737 14.5226L10.0887 14.4291C10.3203 14.3944 10.6657 14.3557 10.8928 14.3366C10.8999 14.6566 10.8693 14.9953 10.8075 15.3376H10.807ZM37.9943 27.6067C38.8459 25.9048 40.678 24.6607 43.1009 24.6607V24.6611C47.0949 24.6611 49.3564 28.0987 49.3564 33.2382C49.3564 38.3777 47.0292 41.8153 42.9368 41.8153C40.5144 41.8153 38.6161 40.6036 37.7654 38.7706L37.76 41.4223H34.1953V18.9531H37.9943V27.6067ZM38.3503 33.8271C38.3503 36.8713 39.4655 38.6084 41.823 38.6084C44.2774 38.6084 45.5237 36.6424 45.5237 33.2377C45.5237 29.833 44.3432 27.8667 41.823 27.8667C39.4984 27.8667 38.3503 29.6037 38.3503 32.7137V33.8271ZM76.8499 35.7567L80.091 25.0515H84.182L78.0278 42.3363C76.5548 46.5269 74.3613 47.9999 70.8588 47.9999H69.0342L69.0253 44.8534C69.4144 44.8534 69.7068 44.8547 69.9638 44.8558H69.964L69.9681 44.8558C70.1677 44.8566 70.3459 44.8574 70.5316 44.8574C72.3976 44.8574 73.3794 44.072 73.9688 42.2385L74.2964 41.2562L67.9128 25.0515H72.234L75.8027 35.7567C76.0454 36.5257 76.3325 37.5818 76.3325 37.5818C76.3929 37.386 76.4482 37.1802 76.5121 36.9426L76.5121 36.9426L76.5121 36.9425L76.5122 36.9422C76.5982 36.6222 76.6997 36.2448 76.8499 35.7567ZM66.1663 41.4901C66.1663 41.0105 66.1661 40.4222 66.1658 39.7373C66.1654 38.7837 66.165 37.6429 66.165 36.3475V31.4694C66.165 26.7228 64.0048 24.6604 59.1596 24.6604C54.9366 24.6604 52.1866 26.8215 51.9244 30.324H55.9513C56.0825 28.4581 57.2279 27.4433 59.1596 27.4433C61.2553 27.4433 62.2042 28.491 62.2042 30.9458V31.3716L58.7342 31.797C56.1478 32.1574 54.5761 32.5828 53.3983 33.27C52.0884 34.0887 51.4012 35.3977 51.4012 36.9694C51.4012 39.8829 53.6272 41.8146 56.9661 41.8146C59.6178 41.8146 61.6802 40.603 62.466 38.6059C62.4916 39.4065 62.489 40.2331 62.4868 40.9452L62.4868 40.9483C62.4862 41.1381 62.4856 41.3197 62.4856 41.4906H66.1663V41.4901ZM62.2082 34.6932C61.8064 36.9236 60.1108 39.3927 57.5408 38.9784C56.3829 38.7917 55.4611 38.0028 55.4611 36.7725C55.4611 35.3648 56.4425 34.579 58.6035 34.2194C58.9732 34.1581 59.3443 34.1041 59.7151 34.0501C59.8927 34.0243 60.0703 33.9984 60.2477 33.9718L60.3323 33.9591L60.333 33.959C60.7184 33.901 61.1042 33.843 61.49 33.7842C61.7215 33.75 62.0669 33.7109 62.294 33.6922C62.3011 34.0127 62.27 34.3509 62.2082 34.6932Z" fill="black"/>
	</g>
	<defs>
		<clipPath id="clip0_1247_1983">
			<rect width="84.1885" height="48" fill="white"/>
		</clipPath>
	</defs>
</svg>
