<svg version="1.1" id="Layer_1" xmlns="http://www.w3.org/2000/svg" x="0" y="0" width="192" height="53" viewBox="0 0 192 53" xml:space="preserve"><g id="biBERK"><path id="bi" fill="#3499CC" d="M3.43 0v15.34h.1c.4-1.01.91-1.82 1.51-2.52.71-.71 1.41-1.31 2.32-1.82.91-.5 1.82-.91 2.83-1.11s2.02-.4 3.03-.4c2.12 0 4.04.4 5.65 1.11 1.61.81 2.93 1.82 3.94 3.13 1.11 1.31 1.82 2.83 2.32 4.54.5 1.72.81 3.53.81 5.45s-.3 3.73-.81 5.45c-.5 1.72-1.31 3.23-2.32 4.54a11.485 11.485 0 0 1-3.94 3.03c-1.61.71-3.43 1.11-5.65 1.11-2.32 0-4.34-.5-6.16-1.51-1.81-1.01-3.12-2.43-3.93-4.34h.1v4.95H0V0h3.43zm18.68 19.58c-.3-1.41-.91-2.62-1.61-3.63-.71-1.11-1.72-1.92-2.93-2.62-1.21-.71-2.62-1.01-4.24-1.01-1.82 0-3.33.3-4.64 1.01s-2.32 1.51-3.03 2.62c-.81 1.11-1.31 2.32-1.72 3.63-.3 1.41-.5 2.73-.5 4.14 0 1.41.2 2.73.5 4.14.3 1.41.91 2.62 1.72 3.63.81 1.11 1.82 1.92 3.03 2.62 1.31.71 2.83 1.01 4.64 1.01 1.61 0 3.03-.3 4.24-1.01 1.21-.71 2.12-1.51 2.93-2.62.71-1.11 1.31-2.32 1.61-3.63.3-1.41.5-2.73.5-4.14.1-1.41-.1-2.83-.5-4.14zM34.82 0v4.48h-3.43V0h3.43zm0 9.57v27.38h-3.43V9.57h3.43z"/><path id="BERK" fill="#1E4A6B" d="M60.16 0c1.82 0 3.53.2 5.15.5 1.51.3 2.83.81 3.94 1.51s1.92 1.72 2.52 2.83c.61 1.21.91 2.62.91 4.34 0 1.82-.4 3.43-1.31 4.64s-2.22 2.22-3.94 3.03c2.42.71 4.24 1.82 5.45 3.43s1.82 3.63 1.82 5.96c0 1.82-.4 3.53-1.11 4.84-.81 1.41-1.82 2.52-3.13 3.33-1.31.91-2.83 1.51-4.44 1.92-1.72.4-3.33.61-5.15.61H41.79V0h18.37zm-1.01 15.04c1.51 0 2.83-.3 3.84-1.01 1.01-.71 1.51-1.82 1.51-3.33 0-.91-.2-1.61-.5-2.12-.3-.5-.81-1.01-1.31-1.31-.5-.3-1.21-.5-1.92-.61s-1.41-.2-2.22-.2h-8.07v8.68h8.68v-.1zm.4 15.75c.81 0 1.61-.1 2.42-.2.81-.2 1.41-.4 2.02-.81.61-.4 1.01-.81 1.41-1.51.3-.61.5-1.41.5-2.42 0-1.92-.61-3.23-1.72-4.04-1.11-.81-2.62-1.21-4.54-1.21h-9.39v10.19h9.3zM80.35 0v36.94h29.68v-6.83h-21.1v-9.03h18.98v-6.32H88.93V6.83h20.69V0H80.35zm56.92 0c1.72 0 3.33.3 4.74.81s2.62 1.31 3.63 2.21 1.82 2.01 2.32 3.22c.5 1.21.81 2.52.81 3.93 0 2.21-.5 4.03-1.41 5.64-1.01 1.61-2.52 2.82-4.74 3.62v.1c1.11.3 1.92.7 2.62 1.31.71.6 1.31 1.21 1.72 2.01.4.81.81 1.61 1.01 2.52.2.91.3 1.81.4 2.82 0 .6.1 1.31.1 2.11 0 .81.1 1.61.2 2.42.1.81.2 1.61.4 2.32.2.7.5 1.41.91 1.91h-8.58c-.5-1.21-.81-2.62-.91-4.23-.1-1.61-.3-3.22-.5-4.63-.3-1.91-.91-3.32-1.82-4.23-.91-.91-2.52-1.31-4.64-1.31h-8.58v14.39h-8.58V0h20.9zm-3.13 16.71c2.02 0 3.43-.4 4.44-1.21 1.01-.81 1.51-2.21 1.51-4.03s-.5-3.12-1.51-3.93-2.42-1.21-4.44-1.21h-9.49V16.7h9.49zM155.64 0v36.94h8.58V25.06l4.95-4.73 11.81 16.61h10.8L175.02 14.6 190.37 0h-10.8l-15.34 15.3V0h-8.59z"/></g><path id="Slogan" fill="#1F486A" d="m.09 52.86 2.22-8.02h2.21l2.18 8.02H4.93l-.44-1.78H2.2l-.46 1.78H.09zm3.23-6.48H3.3l-.77 3.46h1.6l-.81-3.46zm8.4 6.48v-8.02h2.98c1.28 0 2.33.37 2.33 2.08 0 .92-.46 1.59-1.37 1.77v.02c1.19.17 1.5.93 1.5 2.03 0 2.03-1.77 2.12-2.48 2.12h-2.96zm1.68-4.74h1.12c.37 0 .88-.24.88-1.02 0-.59-.4-1.02-.97-1.02H13.4v2.04zm0 3.51h.93c.35 0 1.15-.01 1.15-1.13 0-.71-.27-1.14-1.11-1.14h-.97v2.27zm5.96 1.23v-8.02h4.37v1.23h-2.7v1.98h2.49v1.23h-2.49v2.34h2.79v1.23h-4.46zm8.08 0h-1.68v-8.02h3.1c1.14 0 1.88.73 1.88 2.1 0 1.02-.4 1.79-1.49 1.97v.02c.37.04 1.45.13 1.45 1.58 0 .51.03 2.02.19 2.35h-1.64c-.22-.49-.18-1.03-.18-1.55 0-.96.09-1.77-1.2-1.77h-.43v3.32zm0-4.56h.74c.67 0 .85-.67.85-1.18 0-.77-.32-1.05-.85-1.05h-.74v2.23zm8.97-3.46h1.84l-2.24 3.6 2.24 4.42h-1.89l-1.92-4.11h-.02v4.11h-1.68v-8.02h1.68v3.43h.02l1.97-3.43zm5.66 8.15c-2.08 0-2.47-1.22-2.38-2.61h1.68c0 .77.03 1.41.96 1.41.57 0 .84-.37.84-.91 0-1.44-3.38-1.53-3.38-3.92 0-1.25.6-2.25 2.64-2.25 1.63 0 2.44.73 2.33 2.41h-1.63c0-.6-.1-1.21-.78-1.21-.54 0-.87.3-.87.85 0 1.52 3.38 1.39 3.38 3.91.01 2.08-1.51 2.32-2.79 2.32zm8.53-4.94v-3.21h1.68v8.02H50.6v-3.58h-1.92v3.58H47v-8.02h1.68v3.21h1.92zm4 4.81v-8.02h1.68v8.02H54.6zm5.61 0h-1.68v-8.02h3.1c1.14 0 1.88.73 1.88 2.1 0 1.02-.4 1.79-1.49 1.97v.02c.37.04 1.45.13 1.45 1.58 0 .51.03 2.02.19 2.35h-1.64c-.22-.49-.18-1.03-.18-1.55 0-.96.09-1.77-1.2-1.77h-.43v3.32zm0-4.56h.74c.67 0 .85-.67.85-1.18 0-.77-.32-1.05-.85-1.05h-.74v2.23zm5.41 4.56v-8.02h4.37v1.23h-2.7v1.98h2.49v1.23H67.3v2.34h2.79v1.23h-4.47zm13.42-4.81v-3.21h1.68v8.02h-1.68v-3.58h-1.92v3.58h-1.68v-8.02h1.68v3.21h1.92zm3.4 4.81 2.22-8.02h2.21l2.18 8.02h-1.77l-.44-1.78h-2.29l-.46 1.78h-1.65zm3.23-6.48h-.02l-.77 3.46h1.6l-.81-3.46zm9.04-1.54v1.33h-1.87v6.69h-1.68v-6.69H89.3v-1.33h5.41zm5.31 3.21v-3.21h1.68v8.02h-1.68v-3.58H98.1v3.58h-1.68v-8.02h1.68v3.21h1.92zm3.39 4.81 2.22-8.02h2.21l2.18 8.02h-1.77l-.44-1.78h-2.29l-.46 1.78h-1.65zm3.24-6.48h-.02l-.77 3.46h1.6l-.81-3.46zm4.11-1.54h1.72l1.04 5.63h.02l1.27-5.63h1.98l1.2 5.63h.02l1-5.63h1.64l-1.78 8.02h-1.85L115.77 47h-.02l-1.39 5.86h-1.82l-1.78-8.02zm10.4 8.02 2.22-8.02h2.21l2.18 8.02H126l-.44-1.78h-2.29l-.46 1.78h-1.65zm3.23-6.48h-.02l-.77 3.46h1.6l-.81-3.46zm5.91 3.7-2.1-5.24h1.83l1.2 3.39 1.28-3.39h1.71l-2.24 5.24v2.78h-1.68v-2.78zm8.84-1.23c0-2.12 0-4.14 2.76-4.14 1.71 0 2.4.94 2.33 2.67h-1.64c0-1.07-.19-1.47-.69-1.47-.94 0-1.07.89-1.07 2.94s.12 2.94 1.07 2.94c.78 0 .74-1 .77-1.63h1.65c0 2.14-.86 2.83-2.42 2.83-2.76 0-2.76-2.04-2.76-4.14zm7.05 0c0-2.12 0-4.14 2.76-4.14s2.76 2.02 2.76 4.14c0 2.1 0 4.14-2.76 4.14s-2.76-2.04-2.76-4.14zm3.83 0c0-2.05-.12-2.94-1.07-2.94s-1.07.89-1.07 2.94.12 2.94 1.07 2.94 1.07-.89 1.07-2.94zm3.87 4.01v-8.02h2.7l1.26 5.45h.02l1.33-5.45h2.61v8.02h-1.63v-6.19h-.02l-1.54 6.19h-1.6l-1.47-6.19h-.02v6.19h-1.64zm10.17-8.02h3.02c1.53 0 2.13.93 2.13 2.4 0 .91-.27 2.35-2.23 2.35h-1.24v3.26h-1.68v-8.01zm1.68 3.52h.93c.5 0 .84-.54.84-1.08 0-.66-.18-1.21-.93-1.21h-.84v2.29zm4.31 4.5 2.22-8.02h2.21l2.18 8.02h-1.77l-.44-1.78h-2.29l-.46 1.78h-1.65zm3.23-6.48h-.02l-.77 3.46h1.6l-.81-3.46zm5.05 6.48v-8.02h2.27l2.13 5.55h.02v-5.55h1.57v8.02h-2.21L179.92 47h-.02v5.86h-1.57zm9.75-2.78-2.1-5.24h1.83l1.2 3.39 1.28-3.39H192l-2.24 5.24v2.78h-1.68v-2.78z"/></svg>