<?xml version="1.0" encoding="utf-8"?>
<!-- Generator: Adobe Illustrator 28.1.0, SVG Export Plug-In . SVG Version: 6.00 Build 0)  -->
<svg version="1.1" id="Layer_1" xmlns="http://www.w3.org/2000/svg" xmlns:xlink="http://www.w3.org/1999/xlink" x="0px" y="0px"
	 viewBox="0 0 1420.1 506.9" style="enable-background:new 0 0 1420.1 506.9;" xml:space="preserve">
<style type="text/css">
	.st0{fill:#0A4E9B;}
</style>
<g>
	<g>
		<g>
			<g>
				<g>
					<g>
						<g>
							<path class="st0" d="M293.3,398.5v-102h20.1c24.3,34.7,52,70.4,57.9,81.3h0.3c-0.9-12.7-0.8-29.5-0.8-46.1v-35.2h15.7v102
								h-19c-13.8-19.1-52.1-73.1-59.1-84.9h-0.3c0.8,13,0.8,27.5,0.8,45.5v39.4H293.3z"/>
							<path class="st0" d="M538.4,352.1h-60.1v32.4h66.5l-2.2,14h-81.2v-102h80.2v14h-63.3v27.6h60.1V352.1z"/>
							<path class="st0" d="M611.2,296.6h49c25,0,37.5,12.8,37.5,30.5c0,20.2-14,31.7-37.2,31.7h-32.4v39.8h-16.9V296.6z
								 M628.1,344.9h30.4c13.2,0,22.2-4,22.2-17.6c0-10.8-7.1-17-22.2-17h-30.4V344.9z"/>
							<path class="st0" d="M793.2,310.6H755v-14h93.2v14h-38.1v88h-16.9V310.6z"/>
							<path class="st0" d="M927.2,296.6v57.9c0,25.5,14.7,32.4,29.4,32.4c17.4,0,28.1-8.1,28.1-32.4v-57.9h16.9v57.9
								c0,32.6-17.3,46.2-45.5,46.2c-27.8,0-45.7-13.5-45.7-45.2v-58.9H927.2z"/>
							<path class="st0" d="M1075.5,398.5v-102h20.1c24.3,34.7,52,70.4,57.9,81.3h0.3c-0.9-12.7-0.8-29.5-0.8-46.1v-35.2h15.7v102
								h-19c-13.8-19.1-52.1-73.1-59.1-84.9h-0.3c0.8,13,0.8,27.5,0.8,45.5v39.4H1075.5z"/>
							<path class="st0" d="M1320.6,352.1h-60.1v32.4h66.5l-2.2,14h-81.2v-102h80.2v14h-63.3v27.6h60.1V352.1z"/>
						</g>
					</g>
				</g>
			</g>
		</g>
	</g>
	<g>
		<polygon class="st0" points="209.6,263.8 204.9,268.4 204.9,268.4 		"/>
		<path class="st0" d="M173.9,342.3l-9.8,9.6c0,0,0,0.1,0,0.1v47.1c0,0,0,0.1,0,0.1l4.9,5.1c0.1,0.1,0.2,0.1,0.2,0l4.9-4.5
			c0,0,0.1-0.1,0.1-0.1v-57.3C174.2,342.3,174,342.2,173.9,342.3z"/>
		<path class="st0" d="M153.6,362.1l-2.3,2.3l-7.3,7.1l-0.3,0.3v7.5c0,0,0,0.1,0,0.1l9.9,9.6c0.1,0.1,0.3,0,0.3-0.1v-26.6
			C153.8,362.1,153.7,362,153.6,362.1z"/>
		<path class="st0" d="M214.6,302.6l-9.8,9.6c0,0,0,0.1,0,0.1v57.3c0,0.1,0.2,0.2,0.3,0.1l9.8-9.6c0,0,0-0.1,0-0.1v-57.3
			C214.9,302.5,214.7,302.5,214.6,302.6z"/>
		<path class="st0" d="M245.2,330.1h-9.8c-0.1,0-0.2-0.1-0.2-0.2v-47.1c0-0.1-0.2-0.2-0.3-0.1l-1.5,1.5l-8.3,8.1c0,0,0,0.1,0,0.1
			v57.3c0,0.1,0.2,0.2,0.3,0.1l7.7-7.6l12.3-12C245.4,330.2,245.4,330.1,245.2,330.1z"/>
		<path class="st0" d="M194.3,322.4l-9.9,9.6c0,0,0,0.1,0,0.1v57.3c0,0.1,0.2,0.2,0.3,0.1l5.8-5.7l4-3.9c0,0,0-0.1,0-0.1v-57.3
			C194.5,322.4,194.4,322.3,194.3,322.4z"/>
		<path class="st0" d="M164.1,262.5c0,0-0.1,0.1-0.1,0.1v45.1c0,0.1,0.2,0.2,0.3,0.1l9.8-9.6c0,0,0-0.1,0-0.1v-35.8
			c0-0.1,0-0.1-0.1-0.1c-1.6-1-3.3-1.5-4.8-1.5C167.6,260.7,165.9,261.3,164.1,262.5z"/>
		<path class="st0" d="M184.6,288l9.9-9.6c0,0,0-0.1,0-0.1v-22.7c0,0,0-0.1,0-0.1c-0.8-1.2-1.6-2.4-2.4-3.6c-2.4-3.3-5-6-7.7-8.2
			c-3.2-2.6-6.7-4.3-10.2-5.1c-1.6-0.4-3.2-0.6-4.9-0.6c-1.8,0-3.5,0.2-5.3,0.7c-3.5,0.9-6.9,2.7-10.2,5.4c-2.6,2.1-5.1,4.7-7.3,7.9
			c-1,1.4-1.9,2.8-2.8,4.3c0,0,0,0.1,0,0.1v71.4c0,0.1,0.2,0.2,0.3,0.1l9.9-9.6c0,0,0-0.1,0-0.1v-59.6c0,0,0-0.1,0-0.1
			c0.2-0.3,0.4-0.6,0.6-0.8c3-4.1,6.3-7,9.5-8.6c1.8-0.9,3.6-1.3,5.3-1.3c1.6,0,3.2,0.4,4.9,1.1c3.5,1.6,7,4.7,10.1,9
			c0,0,0,0.1,0,0.1v30.1C184.4,288.1,184.5,288.1,184.6,288z"/>
		<path class="st0" d="M123.3,257.5L123.3,257.5l0,90.3l10.2-9.9v-83.6c0.1-0.1,0.1-0.1,0.2-0.2c0.7-1.2,1.4-2.5,2.1-3.6
			c0.9-1.5,1.8-2.9,2.8-4.2c0.1-0.1,0.1-0.2,0.2-0.3c1.6-2.1,3.2-4,4.9-5.8c0.5-0.5,1-1,1.5-1.4c0.2-0.2,0.4-0.4,0.6-0.5
			c0.1-0.1,0.2-0.2,0.4-0.3c0.2-0.2,0.4-0.4,0.6-0.5c0.2-0.2,0.4-0.3,0.6-0.5c0.2-0.2,0.5-0.4,0.7-0.6c0.3-0.2,0.5-0.4,0.8-0.6
			c0.3-0.2,0.5-0.4,0.8-0.6c0.3-0.2,0.6-0.5,1-0.7c0.1,0,0.1-0.1,0.2-0.1c0.3-0.2,0.6-0.4,0.9-0.6c0.1,0,0.1-0.1,0.2-0.1
			c0.3-0.2,0.6-0.4,0.9-0.5c0,0,0,0,0,0c0.4-0.2,0.7-0.4,1.1-0.6c0.1-0.1,0.2-0.1,0.3-0.2c0.3-0.2,0.6-0.3,0.9-0.5
			c0.2-0.1,0.4-0.2,0.6-0.3c0.2-0.1,0.3-0.2,0.5-0.2c0,0,0.1,0,0.1-0.1c0.3-0.1,0.6-0.3,0.9-0.4c0.2-0.1,0.5-0.2,0.7-0.3
			c0.3-0.1,0.6-0.2,0.8-0.3c0,0,0,0,0,0c0.2-0.1,0.5-0.2,0.7-0.2c0.2-0.1,0.5-0.2,0.7-0.2c0.3-0.1,0.5-0.2,0.8-0.2
			c0.1,0,0.2-0.1,0.4-0.1c0.3-0.1,0.5-0.1,0.8-0.2c0.2-0.1,0.5-0.1,0.7-0.2c0.1,0,0.2,0,0.3-0.1c0,0,0,0,0.1,0c0,0,0,0,0,0
			c0.1,0,0.3,0,0.4-0.1c0.1,0,0.3-0.1,0.4-0.1c0.6-0.1,1.2-0.2,1.8-0.3c1.1-0.1,2.2-0.2,3.3-0.2c0,0,0,0,0,0c0,0,0.1,0,0.1,0
			c0,0,0.1,0,0.1,0c0,0,0,0,0,0c1.1,0,2.2,0.1,3.3,0.2c0.6,0.1,1.2,0.2,1.8,0.3c0.1,0,0.3,0,0.4,0.1c0.1,0,0.3,0.1,0.4,0.1
			c0,0,0,0,0,0c0,0,0,0,0.1,0c0.1,0,0.2,0,0.3,0.1c0.2,0,0.5,0.1,0.7,0.2c0.3,0.1,0.5,0.1,0.8,0.2c0.1,0,0.2,0.1,0.4,0.1
			c0.3,0.1,0.5,0.1,0.8,0.2c0.2,0.1,0.5,0.2,0.7,0.2c0.2,0.1,0.5,0.2,0.7,0.2c0,0,0,0,0,0c0.3,0.1,0.6,0.2,0.8,0.3
			c0.2,0.1,0.5,0.2,0.7,0.3c0.3,0.1,0.6,0.3,0.9,0.4c0,0,0.1,0,0.1,0.1c0.2,0.1,0.3,0.1,0.5,0.2c0.2,0.1,0.4,0.2,0.6,0.3
			c0.3,0.2,0.6,0.3,0.9,0.5c0.1,0.1,0.2,0.1,0.3,0.2c0.4,0.2,0.7,0.4,1.1,0.6c0,0,0,0,0,0c0.3,0.2,0.6,0.4,0.9,0.5
			c0.1,0,0.1,0.1,0.2,0.1c0.3,0.2,0.6,0.4,0.9,0.6c0.1,0,0.1,0.1,0.2,0.1c0.3,0.2,0.6,0.4,1,0.7c0.3,0.2,0.5,0.4,0.8,0.6
			s0.5,0.4,0.8,0.6c0.2,0.2,0.5,0.4,0.7,0.6c0.2,0.2,0.4,0.3,0.6,0.5c0.2,0.2,0.4,0.4,0.6,0.5c0.1,0.1,0.3,0.2,0.4,0.3
			c0.2,0.2,0.4,0.4,0.6,0.5c0.5,0.5,1,0.9,1.5,1.4c1.7,1.8,3.4,3.7,4.9,5.8c0.1,0.1,0.1,0.2,0.2,0.3c1,1.4,1.9,2.8,2.8,4.2
			c0.7,1.2,1.4,2.4,2.1,3.6c0,0.1,0.1,0.1,0.2,0.2v13.7l10.2-9.9v-5c0,0,0,0,0-0.1c0,0,0,0,0,0v-0.8c-1.9-3.9-4.1-7.6-6.5-10.9
			c-0.5-0.6-0.9-1.3-1.4-1.9c-0.3-2.1-0.4-4.3-0.4-6.8c0-11.6,3.5-18.8,5.7-21c1.2,1.9,2.2,4,3,6.2c1.5,4,2.4,8.5,2.7,13.3
			c0,0.5,0,1,0,1.5c0,0.7,0,1.5,0,2.2c0,0.3,0,0.5,0,0.8c-0.1,1.9-0.4,3.8-0.7,5.5c3.3,0.7,6,3.7,7.2,7.7c0,0,0,0,0,0l7.5-7.4
			c-0.9-1.4-2-2.7-3.2-3.7c-0.1-0.1-0.3-0.3-0.4-0.4c-0.1-0.1-0.2-0.2-0.3-0.3c0.1-5.4-0.4-10.5-1.4-15.3c-0.3-1.5-0.7-2.9-1.1-4.3
			c0.7-1.5,1.4-3,1.9-4.5c1.2-3.7,1.6-7.6,1.1-11.5c-0.4-3.5-1.5-6.8-3.1-9.8c-0.6-0.9-1.1-1.8-1.7-2.8c-2.2-3.8-4.1-8-5.8-12.5
			c-1.4-3.7-2.5-7.7-3.4-11.8c-0.4-1.7-0.7-3.5-1-5.3c-0.5-3-0.8-6-1-8.9c-0.4-6.3-0.2-12.3,0.7-17.8c0.3-1.8,0.6-3.5,1-5.1l4.6-7.8
			c0.3-0.5-0.4-1-1-0.8L197,128.9c-0.4,0.2-0.3,0.7,0.1,0.8l4.7,1.6c-0.1,0.8-0.4,5.5-0.5,9.9c-1.5-0.3-3-0.6-4.5-0.9
			c-3.5-0.6-7.2-1.1-11-1.5c-1.6-0.2-3.2-0.3-4.8-0.4c-2-0.1-4.1-0.3-6.2-0.3v-11.8l3.4-3.4c0.5-0.5,0.6-1.4,0.3-2.1l-8.4-18.2
			c-0.4-0.9-1.7-0.9-2.2,0l-8.4,18.2c-0.3,0.7-0.2,1.6,0.3,2.1l3.8,3.8v0v11.4c-2.2,0.1-4.3,0.2-6.4,0.3c-1.6,0.1-3.1,0.2-4.6,0.4
			c-3.8,0.4-7.5,0.9-11,1.5c-1.5,0.3-2.9,0.5-4.3,0.8c-0.1-4.4-0.4-9-0.5-9.8l4.7-1.6c0.4-0.1,0.5-0.6,0.1-0.8l-20.9-10.1
			c-0.6-0.3-1.3,0.3-1,0.8l4.6,7.8c0,0,0,0,0,0c0.4,1.6,0.8,3.4,1,5.1c0.9,5.5,1.1,11.5,0.7,17.8c-0.2,2.9-0.5,5.9-1,8.9
			c-0.3,1.8-0.6,3.6-1,5.3c-0.9,4.1-2.1,8.1-3.4,11.8c-1.6,4.5-3.6,8.7-5.8,12.5c-0.5,1-1.1,1.9-1.7,2.8l0,0c-1.6,3-2.7,6.3-3.1,9.8
			c-0.5,4-0.1,7.9,1.1,11.5c0.4,1.4,1,2.8,1.7,4.2c0,0.1-0.1,0.2-0.1,0.3c-0.4,1.4-0.8,2.9-1.1,4.3c-1,4.8-1.5,9.9-1.4,15.3
			c-0.1,0.1-0.2,0.2-0.3,0.3c-0.1,0.1-0.3,0.3-0.4,0.4c0,0,0,0,0,0c-3.4,2.9-5.9,7.7-6.4,13.4H103v2.4v76.5v0h-9.8l9.8,9.6l10.2,9.9
			v-78.1c0,0,0,0,0,0v-17.9c0-6.3,3.4-11.5,7.9-12.4c-0.3-1.7-0.6-3.5-0.7-5.5c0-0.3,0-0.5,0-0.8c0-0.7,0-1.4,0-2.2c0-0.5,0-1,0-1.5
			c0.3-4.8,1.3-9.3,2.7-13.3c0.8-2.2,1.8-4.3,3-6.2c2.1,2.2,5.7,9.5,5.7,21c0,2.5-0.2,4.7-0.4,6.8c-0.5,0.6-0.9,1.2-1.4,1.9
			c-2.4,3.3-4.6,7-6.5,10.9v0.8c0,0,0,0,0,0c0,0,0,0,0,0.1V257.5z M204.6,169.3c0.3,1.2,0.6,2.3,0.9,3.5c0.2,0.8,0.5,1.6,0.7,2.4
			c-3.2-0.1-6.4-0.4-9.4-0.9c-4-0.8-7.7-1.9-11-3.5c-3.4-1.6-6.4-3.5-8.7-5.7c0,0,0,0,0,0c3,0.1,5.9,0.4,8.7,0.7
			c3.9,0.4,7.6,1,11,1.7C199.6,168,202.2,168.6,204.6,169.3C204.6,169.3,204.6,169.3,204.6,169.3z M174.8,147.4
			c0.7,0,1.4,0.1,2.1,0.1c3.1,0.1,6,0.4,8.9,0.7c3.9,0.4,7.6,1,11,1.7c1.6,0.3,3.2,0.7,4.7,1c0.2,2.8,0.6,5.6,1,8.4
			c-1.9-0.4-3.8-0.8-5.7-1.1c-3.5-0.6-7.2-1.1-11-1.5c-2.7-0.3-5.4-0.5-8.2-0.6c-0.9-0.1-1.9-0.1-2.8-0.1V147.4z M137.1,150.7
			c1.5-0.3,3-0.7,4.5-1c3.5-0.7,7.1-1.2,11-1.6c2.8-0.3,5.7-0.5,8.7-0.7c0.8,0,1.5-0.1,2.3-0.1v0v8.5c-1,0-2,0.1-3,0.1
			c-2.7,0.1-5.4,0.3-8,0.6c-3.8,0.4-7.5,0.9-11,1.5c-1.9,0.3-3.7,0.7-5.5,1.1C136.6,156.3,136.9,153.5,137.1,150.7z M133.2,172.8
			c0.3-1.2,0.6-2.4,0.9-3.6c0,0,0,0,0,0c2.4-0.6,4.9-1.2,7.5-1.7l11-1.6c2.7-0.3,5.6-0.5,8.5-0.7c0,0,0,0,0,0
			c-1.5,1.4-3.2,2.7-5.1,3.8c-1.1,0.6-2.2,1.2-3.4,1.8c-3.3,1.5-7,2.7-11,3.5c-2.9,0.6-6,0.9-9.2,1
			C132.7,174.4,132.9,173.6,133.2,172.8z M125.9,200.7c-1,0-2,0.2-2.9,0.5c-0.5,0.2-1.1,0.5-1.6,0.8c0,0,0,0,0,0
			c0.2-1.4,0.6-2.7,1.1-4c0.7-1.8,1.6-3.4,2.8-5c0,0,0,0,0.1-0.1c0.9-1.8,1.8-3.7,2.7-5.6c0.4-1,0.8-1.9,1.2-2.9c0,0,0,0,0,0
			c0.3,0,0.6,0,0.9,0c0.2,0,0.3,0,0.5,0c0.2,0,0.3,0,0.5,0c3.6,0,7.2-0.3,10.5-0.8c3.9-0.6,7.6-1.5,11-2.7c0.9-0.3,1.7-0.6,2.5-0.9
			c3.1-1.2,5.9-2.7,8.5-4.4c0.5-0.3,1-0.7,1.5-1c1.4-1,2.7-2.1,3.9-3.2c1.7,1.6,3.5,3,5.6,4.4c3.3,2.1,7,3.9,11,5.3
			c3.5,1.2,7.2,2.1,11,2.7c3.3,0.5,6.8,0.8,10.3,0.8c0.2,0,0.5,0,0.7,0c0.1,0,0.2,0,0.2,0c0.5,0,0.9,0,1.4,0c0,0,0,0,0,0
			c0.4,1,0.8,2,1.2,2.9c0.8,1.9,1.7,3.8,2.7,5.6c0,0,0,0,0.1,0.1c1.2,1.5,2.1,3.2,2.8,5c0.5,1.3,0.9,2.8,1.1,4.2c0,0,0,0,0,0
			c-0.6-0.4-1.3-0.7-1.9-1c-1-0.3-1.9-0.5-2.9-0.5c-2.1,0-4.1,0.8-6,2.2c-0.3,0.3-0.7,0.6-1,0.9c-0.1,0.1-0.2,0.2-0.3,0.3
			c-4.7,4.6-8.1,13.6-8.8,24.2c0,0.1,0,0.2,0,0.2c-0.6-0.4-1.1-0.8-1.7-1.2c-3.2-2.3-6.6-4.2-10.2-5.5c-3.3-1.3-6.7-2.1-10.2-2.6
			c-1.6-0.2-3.2-0.3-4.9-0.3c0,0,0,0-0.1,0c0,0-0.1,0-0.1,0c0,0-0.1,0-0.1,0c0,0-0.1,0-0.1,0c0,0-0.1,0-0.1,0c0,0,0,0-0.1,0
			c-1.6,0-3.3,0.1-4.9,0.3c-3.5,0.4-6.9,1.3-10.2,2.6c-3.6,1.4-7,3.2-10.2,5.5c-0.6,0.4-1.1,0.8-1.7,1.2c0-0.1,0-0.2,0-0.2
			c-0.7-10.6-4.1-19.6-8.8-24.2c-0.1-0.1-0.2-0.2-0.3-0.3c-0.3-0.3-0.7-0.6-1-0.9C130.1,201.5,128.1,200.7,125.9,200.7z"/>
		<path class="st0" d="M361.8,204.3l-25.7-6.7c-0.5-0.1-0.8,0.4-0.6,0.9l2,4.8c-15.4,6.1-28.6,17.1-37.6,30.8l-12.2-18l43.3-42.8
			l7.1,0c0.8,0,1.7-0.6,2-1.5l8.3-21.9c0.5-1.3-0.5-2.2-1.8-1.8l-22.1,8.2c-0.9,0.3-1.5,1.2-1.5,2l0,7.1l-43.2,42.8l-18-12
			c13.9-9,24.9-22.1,31.1-37.4l4.7,1.9c0.5,0.2,1-0.2,0.9-0.6l-6.7-25.5c-0.2-0.7-1.3-0.7-1.5,0l-7,19.8c0,0.1,0,0.1,0,0.2
			c-7.6,19-24.5,34.7-44.1,40.8c-2.8,0.9-4.3,3.8-3.4,6.5c0.7,2.2,2.8,3.7,5,3.7c0.5,0,1-0.1,1.5-0.2c3.1-1,6.2-2.1,9.2-3.5
			l20.8,13.8L125.2,361.3l7.8,7.9l147.1-145.6l14.1,20.8c-1.3,2.9-2.5,5.9-3.5,8.9c-0.9,2.8,0.7,5.7,3.4,6.6
			c0.5,0.2,1.1,0.2,1.6,0.2c2.2,0,4.3-1.4,5-3.7c6.6-21,24.6-38.7,45.7-45.3c0.4-0.1,0.8-0.3,1.2-0.6l14.2-4.9
			C362.5,205.5,362.5,204.5,361.8,204.3z"/>
		<path class="st0" d="M198.1,197.9l4.5-8.9c-8.4-4.2-18.4-4.2-26.8,0l4.5,8.9C185.8,195.1,192.5,195.1,198.1,197.9z"/>
		<path class="st0" d="M159.8,196.3l-1,11.9c-0.1,1.3,0.3,2.6,1.2,3.6c2.6,3.1,6.5,4.9,10.6,4.9c4.1,0,8-1.8,10.6-4.9l-7.6-6.4
			c-0.7,0.9-1.9,1.4-3,1.4c-0.6,0-1.1-0.1-1.6-0.4l1.5-16.8l-0.1,0l0-0.1c-11.6-5.6-24.9-5.6-36.5,0l4.3,8.9
			C144.9,195.2,152.7,194.5,159.8,196.3z"/>
	</g>
</g>
</svg>
